<?xml version="1.0" encoding="UTF-8" standalone="no"?>
<!DOCTYPE svg PUBLIC "-//W3C//DTD SVG 1.1//EN" "http://www.w3.org/Graphics/SVG/1.1/DTD/svg11.dtd">
<svg width="100%" height="100%" viewBox="0 0 500 500" version="1.1" xmlns="http://www.w3.org/2000/svg" xmlns:xlink="http://www.w3.org/1999/xlink" xml:space="preserve" xmlns:serif="http://www.serif.com/" style="fill-rule:evenodd;clip-rule:evenodd;stroke-linejoin:round;stroke-miterlimit:2;">
    <g id="Picto">
        <path id="cercle" d="M247.511,449.976c-60.996,-0.338 -120.755,-30.723 -157.105,-79.564c-34.775,-45.577 -48.28,-106.46 -35.9,-162.503c11.929,-56.494 49.63,-107.023 100.835,-134.032c51.319,-27.909 115.129,-31.735 169.148,-9.453c53.681,21.382 97.122,67.072 115.128,121.99c19.019,55.931 11.704,120.19 -20.257,169.931c-28.698,46.028 -76.865,79.451 -130.096,89.692c-13.73,2.813 -27.798,4.164 -41.753,3.939Zm2.476,-12.042c60.097,0.563 119.405,-30.385 153.617,-79.788c31.286,-44.115 41.865,-101.959 28.36,-154.401c-13.955,-55.368 -54.807,-103.534 -107.475,-126.042c-54.019,-23.52 -118.842,-19.806 -169.71,10.579c-50.868,29.822 -86.206,84.403 -91.608,143.147c-5.514,53.793 13.392,109.498 50.981,148.436c34.887,36.575 85.08,58.52 135.835,58.069Z" style="fill:#000;fill-rule:nonzero;"/>
        <path id="arc-central" d="M270.807,266.315c-6.527,3.939 -13.279,5.29 -20.707,5.29c-23.183,0 -42.765,-20.482 -52.106,-49.967c-4.614,0.788 -9.904,2.476 -13.167,3.827c11.366,35.786 36.463,59.982 65.16,59.982c5.29,0 10.129,-0.45 15.081,-2.138c2.588,-5.852 4.614,-11.367 5.739,-16.994Zm19.357,1.689c19.695,-18.344 31.624,-49.404 31.624,-85.866c0,-28.697 -8.103,-54.581 -21.158,-73.262c-13.054,-18.681 -30.948,-30.047 -50.53,-30.047c-19.582,0 -37.476,11.366 -50.53,30.047c-13.055,18.681 -21.158,44.565 -21.158,73.262c0,9.115 0.788,17.443 2.363,25.771c4.614,-1.801 8.666,-2.926 13.28,-3.714c-1.125,-7.09 -1.801,-14.517 -1.801,-22.057c0,-24.533 6.303,-46.703 16.769,-62.908c10.354,-16.206 24.984,-26.447 41.189,-26.447c16.206,0 30.836,10.241 41.19,26.447c10.354,16.205 16.768,38.375 16.768,62.908c0,25.771 -6.752,48.503 -18.006,64.821c0.788,5.064 1.238,14.405 0,21.045Z" style="fill:#000;fill-rule:nonzero;"/>
        <path id="arc-gauche" d="M253.476,224.002c6.415,3.601 11.704,8.665 15.306,14.967c11.591,20.144 3.713,47.04 -17.219,69.885c3.264,3.489 6.64,6.64 9.903,9.454c25.322,-27.797 33.65,-61.333 19.245,-86.204c-2.701,-4.614 -5.965,-8.665 -9.791,-12.154c-6.19,0 -12.155,1.913 -17.444,4.052Zm-7.54,-17.669c-7.99,-2.251 -16.769,-3.376 -25.997,-3.376c-20.369,0.225 -42.99,6.302 -64.373,18.569c-24.871,14.292 -43.215,34.324 -52.893,55.03c-9.679,20.595 -10.579,41.752 -0.676,58.745c9.791,16.993 28.586,26.783 51.319,28.809c22.733,2.026 49.18,-3.939 74.051,-18.231c7.878,-4.501 14.067,-8.778 20.595,-14.292c-3.264,-2.701 -6.865,-6.19 -10.016,-9.566c-5.515,4.502 -10.917,8.103 -17.557,11.929c-18.569,10.691 -38.038,16.318 -55.482,16.993c-2.476,0.113 -4.952,0.113 -7.315,0c-19.244,-0.9 -35.45,-8.327 -43.553,-22.395c-8.103,-14.067 -6.527,-31.848 2.364,-48.953c8.89,-17.106 24.871,-33.649 46.141,-45.915c19.469,-11.254 39.952,-16.881 58.07,-17.106c2.589,0 5.177,0.113 7.653,0.225c5.515,-4.501 11.029,-7.877 17.669,-10.466Z" style="fill:#000;fill-rule:nonzero;"/>
        <path id="arc-droit" d="M214.312,275.206c6.302,25.883 27.235,52.555 58.521,70.673c24.871,14.292 51.318,20.257 74.051,18.231c22.733,-2.026 41.415,-11.816 51.318,-28.809c9.791,-16.993 8.891,-38.15 -0.675,-58.745c-9.678,-20.594 -28.022,-40.626 -52.894,-55.03c-7.877,-4.502 -14.742,-7.765 -22.845,-10.579c-0.563,4.502 -1.801,9.341 -3.039,13.617c6.753,2.476 12.267,5.177 18.907,9.003c21.27,12.267 37.251,28.81 46.141,45.915c8.891,17.106 10.466,34.887 2.364,48.954c-8.103,14.067 -24.309,21.494 -43.553,22.395c-2.364,0.112 -4.84,0.112 -7.315,0c-17.444,-0.675 -36.914,-6.302 -55.483,-16.993c-22.282,-12.83 -38.826,-30.498 -47.379,-48.504c-5.177,-1.913 -12.942,-5.852 -18.119,-10.128Zm11.592,-15.53c0,-7.315 1.688,-14.405 5.289,-20.707c8.666,-15.08 26.222,-22.62 47.267,-22.62c6.977,0 13.73,0.788 21.27,2.476c1.576,-4.277 2.701,-9.116 3.489,-13.28c-7.991,-1.8 -15.756,-2.588 -24.084,-2.588c-10.691,0 -21.27,1.688 -30.723,5.177c-16.769,6.302 -30.048,18.343 -34.888,38.6c2.926,3.939 8.441,9.791 12.38,12.942Z" style="fill:#000;fill-rule:nonzero;"/>
    </g>
</svg>
